<svg width="32" height="32" viewBox="0 0 32 32" fill="none" xmlns="http://www.w3.org/2000/svg">
<path d="M11 18.5C11 16.8188 11.4985 15.1755 12.4325 13.7777C13.3665 12.3798 14.694 11.2904 16.2472 10.647C17.8003 10.0037 19.5095 9.83535 21.1583 10.1633C22.8072 10.4913 24.3217 11.3009 25.5103 12.4896C26.6992 13.6784 27.5087 15.1929 27.8367 16.8417C28.1647 18.4905 27.9963 20.1997 27.353 21.7528C26.7097 23.306 25.6202 24.6335 24.2223 25.5675C22.8245 26.5015 21.1812 27 19.5 27H9.5C8.04132 27 6.64237 26.4205 5.61092 25.3892C4.57947 24.3577 4 22.9587 4 21.5C4 20.0413 4.57947 18.6423 5.61092 17.6108C6.64237 16.5795 8.04132 16 9.5 16C10.1086 15.9969 10.7132 16.0984 11.2875 16.3" stroke="white" stroke-width="2" stroke-linecap="round" stroke-linejoin="round"/>
<path d="M9.9625 7.08745L9.4375 4.13745" stroke="white" stroke-width="2" stroke-linecap="round" stroke-linejoin="round"/>
<path d="M6.0875 9.5624L3.625 7.8374" stroke="white" stroke-width="2" stroke-linecap="round" stroke-linejoin="round"/>
<path d="M5.08745 14.0374L2.13745 14.5624" stroke="white" stroke-width="2" stroke-linecap="round" stroke-linejoin="round"/>
<path d="M14.4375 8.0875L16.1625 5.625" stroke="white" stroke-width="2" stroke-linecap="round" stroke-linejoin="round"/>
<path d="M6.4498 16.9248C5.74885 16.0994 5.27879 15.1032 5.0873 14.0374C4.83337 12.5956 5.11532 11.1107 5.88005 9.86234C6.6448 8.61399 7.83957 7.6883 9.23935 7.2596C10.6392 6.8309 12.1474 6.92877 13.4801 7.53479C14.8127 8.1408 15.8778 9.21312 16.4748 10.5498" stroke="white" stroke-width="2" stroke-linecap="round" stroke-linejoin="round"/>
</svg>
