<svg width="32" height="32" viewBox="0 0 32 32" fill="none" xmlns="http://www.w3.org/2000/svg">
<path d="M10 16C10 14.0222 10.5865 12.0888 11.6853 10.4443C12.7841 8.79982 14.3459 7.51808 16.1732 6.76122C18.0005 6.00433 20.0112 5.8063 21.9508 6.19215C23.8907 6.578 25.6725 7.53042 27.071 8.92893C28.4697 10.3275 29.422 12.1093 29.8078 14.0491C30.1937 15.9889 29.9957 17.9995 29.2388 19.8268C28.482 21.6542 27.2002 23.2158 25.5557 24.3147C23.9112 25.4135 21.9778 26 20 26H9C7.14348 26 5.363 25.2625 4.05025 23.9498C2.7375 22.637 2 20.8565 2 19C2 17.1435 2.7375 15.363 4.05025 14.0502C5.363 12.7375 7.14348 12 9 12C9.58567 11.9998 10.1692 12.0712 10.7375 12.2125" stroke="white" stroke-width="2" stroke-linecap="round" stroke-linejoin="round"/>
</svg>
