<svg width="32" height="32" viewBox="0 0 32 32" fill="none" xmlns="http://www.w3.org/2000/svg">
<path d="M27.0874 19.0751C25.1241 19.6256 23.0496 19.6437 21.0769 19.1274C19.1044 18.6111 17.3047 17.5789 15.8629 16.1371C14.421 14.6953 13.3889 12.8957 12.8726 10.923C12.3563 8.95043 12.3743 6.87593 12.9249 4.9126C10.9892 5.45136 9.2285 6.48788 7.81808 7.91888C6.40767 9.3499 5.39678 11.1255 4.88615 13.0687C4.3755 15.012 4.3829 17.0552 4.90762 18.9947C5.43233 20.9342 6.45607 22.7024 7.87682 24.1232C9.29757 25.5439 11.0658 26.5676 13.0053 27.0924C14.9448 27.6171 16.9879 27.6246 18.9312 27.1139C20.8746 26.6032 22.6501 25.5924 24.0811 24.1819C25.5121 22.7716 26.5486 21.0107 27.0874 19.0751Z" stroke="white" stroke-width="2" stroke-linecap="round" stroke-linejoin="round"/>
</svg>
